<svg xmlns="http://www.w3.org/2000/svg" width="200" height="32" viewBox="0 0 200 32"><path fill="#0079C1" d="M200.3 3.1c0 1.7-1.4 3.1-3.1 3.1-1.7 0-3.1-1.4-3.1-3.1 0-1.8 1.4-3.1 3.2-3.1 1.6 0 3 1.4 3 3.1m-5.5 0c0 1.4 1 2.5 2.4 2.5 1.3 0 2.3-1.1 2.3-2.5s-1-2.5-2.4-2.5c-1.3 0-2.3 1.2-2.3 2.5m1.9 1.6h-.7V1.6c.3 0 .7-.1 1.2-.1.6 0 .8.1 1 .2.2.1.3.4.3.7 0 .4-.3.6-.6.7.3.1.4.3.5.8.1.5.2.6.2.8h-.7c-.1-.1-.1-.4-.2-.8-.1-.3-.2-.5-.6-.5h-.3v1.3zm0-1.7h.3c.4 0 .7-.1.7-.5 0-.3-.2-.5-.7-.5h-.4v1z"/><path fill="#58595B" d="M.6 27.6h3.7L8.8 4.8H5.1l.7-3.2h13c1.9 0 3.8.2 5.3.9 2 1 3.5 3.1 3.5 6.2 0 4.3-2.9 8.5-7.7 9.5v.1s.7.8 1 1.6l2.3 5.9c.5 1.2.8 1.9 2.4 1.9.5 0 1.2-.1 1.2-.1l-.8 3.2c-.3 0-1.3.1-2 .1-3.3 0-4.3-1.8-5.1-3.9l-2.4-6.3c-.5-1.4-1.2-1.7-2.6-1.7h-3.7l-1.7 8.6h3.6l-.6 3.2H0l.6-3.2zm16-12c3.5 0 6.5-2.6 6.5-6.4 0-1.7-.6-2.8-1.6-3.4-.8-.6-2.2-.8-3.7-.8h-4.9l-2.1 10.6h5.8zM38.8 9.3c5.7 0 9.7 3.7 9.7 9.2 0 7.3-6.5 12.8-13.3 12.8-5.7 0-9.7-3.8-9.7-9.2 0-7.2 6.4-12.8 13.3-12.8m-3.3 18.5c4.4 0 8.8-3.9 8.8-9.1 0-3.5-2.4-5.9-5.9-5.9-4.4 0-8.8 3.9-8.8 9.1 0 3.5 2.4 5.9 5.9 5.9M62.4 9.3c3 0 8.1 1.2 7.4 4.9l-.5 2.4h-3.6l.3-1.4c.3-1.7-2-2.4-4-2.4-4.6 0-8.9 4.1-8.9 9 0 3.6 2.4 6 6.3 6 4.2 0 7.2-2.7 7.2-2.7l1.2 3.1s-3.2 3.1-8.8 3.1c-6.2 0-10-3.7-10-9.2 0-6.8 5.9-12.8 13.4-12.8"/><path fill="#58595B" d="M73.4 4.7h-3.5l.6-3.1h7.6L74.9 18h2.7l5.4-5h-2.6l.6-3.1h9.4l-.6 3.1h-2.5l-6.8 6.3v.1s.6.5 1.1 1.7l2.3 5c.4 1 .9 1.7 2.3 1.7h1.2l-.6 3.1c-.3 0-1.2.1-1.8.1-3.4 0-4-1.7-4.9-3.7L77.7 22c-.3-.7-.8-1-1.7-1h-1.7l-2 9.8h-4l5.1-26.1zM99.2 9.3c5.4 0 8 3.2 8 7.7 0 1.7-.7 3.6-.7 3.6H91.2s-.2.7-.2 1.5c0 3.2 2.1 5.6 6 5.6 3.6 0 6.7-2.4 6.7-2.4l1.1 3.1s-3.5 2.7-8.1 2.7c-6.2 0-9.9-3.7-9.9-8.9.1-6.8 5.4-12.9 12.4-12.9m3.9 8.8s.1-.7.1-1.4c0-2.8-1.7-4.2-4.1-4.2-3.1 0-6 2-7.3 5.6h11.3zM108.5 22.7l1.9-9.8h-3.5l.6-3.1h3.6l1.1-5.8h3.9L115 9.8h5.1l-.6 3.1h-5.1l-1.9 9.8c-.1.6-.2 1.2-.2 1.6 0 2.9 1.9 3.3 3.5 3.3.7 0 1.2-.1 1.2-.1l-.7 3.3s-.7.1-1.3.1c-3.3 0-6.8-1.2-6.8-6.1 0-.6.1-1.3.3-2.1"/><path fill="#0079C1" d="M118.2 27.6h3.6l4.5-22.8h-3.7l.6-3.2h20.4l-1.4 6.9h-3.6l.7-3.4h-8.9l-1.9 9.7h10.4l-.7 3.4h-10.4l-1.8 9.4h4l-.7 3.2h-11.8zM140.9 23.1l2-10.2h-3.5l.6-3.1h7.5l-2.4 12.5c-.2.9-.3 1.7-.3 2.4 0 1.8.8 2.9 3.2 2.9 4.2 0 7.6-4.3 8.4-8.3l1.3-6.4h-3.5l.6-3.1h7.5l-2.9 14.8c-.1.5-.1.9-.1 1.3 0 1.5.8 1.8 1.9 1.8.6 0 1-.1 1-.1l-.6 3.1s-.9.1-1.9.1c-2.8 0-4.5-1.4-4.2-4.6h-.1c-1.4 2.2-4.3 5-8.7 5-3.2 0-5.9-1.6-5.9-5.5-.2-.7-.1-1.6.1-2.6"/><path fill="#0079C1" d="M174.6 9.3c5.4 0 8 3.2 8 7.7 0 1.7-.7 3.6-.7 3.6h-15.3s-.2.7-.2 1.5c0 3.2 2.1 5.6 6 5.6 3.6 0 6.8-2.4 6.8-2.4l1.1 3.1s-3.5 2.7-8.1 2.7c-6.2 0-9.9-3.7-9.9-8.9 0-6.8 5.2-12.9 12.3-12.9m3.8 8.8s.1-.7.1-1.4c0-2.8-1.7-4.2-4.1-4.2-3.1 0-6 2-7.3 5.6h11.3zM183.1 24.8l4-20.2h-3.5l.6-3.1h7.5l-4.4 22.9c-.1.5-.2 1.1-.2 1.4 0 1.5.8 1.7 1.9 1.7.6 0 1-.1 1-.1l-.7 3.3s-.8.1-1.7.1c-2 0-4.7-.5-4.7-4.2 0-.4.1-1.1.2-1.8"/></svg>